<svg width="102" height="18" viewBox="0 0 102 18" fill="none" xmlns="http://www.w3.org/2000/svg">
<g id="Group 482256">
<g id="Group 4192">
<g id="Group 3988">
<g id="Group 12">
<path id="Rectangle 1" d="M12.5615 6.1047C12.5615 5.48569 13.1121 4.98389 13.7913 4.98389C14.4704 4.98389 15.021 5.48569 15.021 6.10471V16.8145C15.021 17.4335 14.4704 17.9353 13.7913 17.9353C13.1121 17.9353 12.5615 17.4335 12.5615 16.8145V6.1047Z" fill="#151515"/>
<path id="Rectangle 2" d="M18.8408 1.12082C18.8408 0.501807 19.3914 0 20.0706 0C20.7497 0 21.3003 0.501808 21.3003 1.12082V9.33992C21.3003 9.95893 20.7497 10.4607 20.0706 10.4607C19.3914 10.4607 18.8408 9.95893 18.8408 9.33992V1.12082Z" fill="#F6B94C"/>
<path id="Rectangle 3" d="M6.27637 10.0842C6.27637 9.46519 6.82694 8.96338 7.50611 8.96338C8.18527 8.96338 8.73585 9.46519 8.73585 10.0842V16.8089C8.73585 17.4279 8.18527 17.9297 7.50611 17.9297C6.82694 17.9297 6.27637 17.4279 6.27637 16.8089V10.0842Z" fill="#F6B94C"/>
<path id="Rectangle 4" d="M-0.000976562 9.21826C-0.000976562 8.62876 0.523347 8.15088 1.17013 8.15088H1.28739C1.93418 8.15088 2.4585 8.62876 2.4585 9.21826V12.5629C2.4585 13.1524 1.93418 13.6303 1.28739 13.6303H1.17013C0.523348 13.6303 -0.000976562 13.1524 -0.000976562 12.5629V9.21826Z" fill="#151515"/>
</g>
</g>
<g id="FRONT">
<path d="M32.3192 17.8183C32.057 17.8183 31.8365 17.7273 31.6578 17.5454C31.479 17.3634 31.3896 17.139 31.3896 16.8722V4.55434C31.3896 4.27535 31.479 4.05095 31.6578 3.88114C31.8365 3.69919 32.057 3.60822 32.3192 3.60822H40.3989C40.673 3.60822 40.8935 3.69312 41.0603 3.86294C41.2272 4.02063 41.3106 4.2329 41.3106 4.49976C41.3106 4.75448 41.2272 4.96069 41.0603 5.11838C40.8935 5.27606 40.673 5.35491 40.3989 5.35491H33.2487V9.77622H38.379C38.6531 9.77622 38.8736 9.86113 39.0404 10.0309C39.2072 10.1886 39.2906 10.3948 39.2906 10.6496C39.2906 10.9043 39.2072 11.1166 39.0404 11.2864C38.8736 11.4441 38.6531 11.5229 38.379 11.5229H33.2487V16.8722C33.2487 17.139 33.1593 17.3634 32.9806 17.5454C32.8018 17.7273 32.5814 17.8183 32.3192 17.8183Z" fill="#151515"/>
<path d="M46.1072 17.8183C45.845 17.8183 45.6246 17.7273 45.4458 17.5454C45.267 17.3634 45.1777 17.139 45.1777 16.8722V4.55434C45.1777 4.27535 45.267 4.05095 45.4458 3.88114C45.6246 3.69919 45.845 3.60822 46.1072 3.60822H49.3248C50.2186 3.60822 51.0111 3.80229 51.7023 4.19045C52.3934 4.56647 52.9297 5.08805 53.3111 5.75519C53.7043 6.42233 53.9009 7.19864 53.9009 8.08411C53.9009 8.95746 53.6864 9.7277 53.2574 10.3948C52.8284 11.0498 52.2445 11.5472 51.5056 11.8868L54.2406 16.3627C54.4551 16.7145 54.4849 17.048 54.33 17.3634C54.175 17.6667 53.9069 17.8183 53.5256 17.8183C53.18 17.8183 52.9118 17.6667 52.7212 17.3634L49.6466 12.3417C49.5393 12.3417 49.4321 12.3417 49.3248 12.3417H47.0367V16.8722C47.0367 17.139 46.9473 17.3634 46.7686 17.5454C46.6018 17.7273 46.3813 17.8183 46.1072 17.8183ZM47.0367 10.595H49.3248C50.1352 10.595 50.8025 10.3645 51.3269 9.90358C51.8512 9.43052 52.1134 8.82403 52.1134 8.08411C52.1134 7.28355 51.8512 6.62854 51.3269 6.11908C50.8025 5.60963 50.1352 5.35491 49.3248 5.35491H47.0367V10.595Z" fill="#151515"/>
<path d="M64.4148 18.0002C63.3661 18.0002 62.4068 17.8243 61.5368 17.4726C60.6669 17.1087 59.9161 16.6053 59.2845 15.9624C58.6648 15.3074 58.1822 14.5372 57.8366 13.6517C57.491 12.7541 57.3182 11.7716 57.3182 10.7041C57.3182 9.63673 57.491 8.66028 57.8366 7.7748C58.1822 6.88933 58.6648 6.12515 59.2845 5.48227C59.9161 4.82726 60.6669 4.32387 61.5368 3.97211C62.4068 3.60822 63.3661 3.42627 64.4148 3.42627C65.4635 3.42627 66.4169 3.60822 67.2749 3.97211C68.1448 4.32387 68.8956 4.82726 69.5272 5.48227C70.1588 6.12515 70.6474 6.88933 70.993 7.7748C71.3386 8.66028 71.5114 9.63673 71.5114 10.7041C71.5114 11.7716 71.3386 12.7541 70.993 13.6517C70.6474 14.5372 70.1588 15.3074 69.5272 15.9624C68.8956 16.6053 68.1448 17.1087 67.2749 17.4726C66.4169 17.8243 65.4635 18.0002 64.4148 18.0002ZM64.4148 16.2899C65.4516 16.2899 66.3692 16.0473 67.1676 15.5621C67.9661 15.0648 68.5917 14.3977 69.0446 13.5607C69.4974 12.7116 69.7239 11.7594 69.7239 10.7041C69.7239 9.64886 69.4974 8.70273 69.0446 7.86578C68.5917 7.01669 67.9661 6.34955 67.1676 5.86436C66.3692 5.37917 65.4516 5.13657 64.4148 5.13657C63.378 5.13657 62.4604 5.37917 61.662 5.86436C60.8635 6.34955 60.2379 7.01669 59.785 7.86578C59.3322 8.70273 59.1058 9.64886 59.1058 10.7041C59.1058 11.7594 59.3322 12.7116 59.785 13.5607C60.2379 14.3977 60.8635 15.0648 61.662 15.5621C62.4604 16.0473 63.378 16.2899 64.4148 16.2899Z" fill="#151515"/>
<path d="M76.8246 17.8183C76.5624 17.8183 76.3419 17.7273 76.1632 17.5454C75.9964 17.3634 75.9129 17.139 75.9129 16.8722V4.55434C75.9129 4.27535 75.9964 4.05095 76.1632 3.88114C76.3419 3.69919 76.5624 3.60822 76.8246 3.60822C77.1106 3.60822 77.3489 3.72345 77.5396 3.95392L85.3334 14.5068V4.55434C85.3334 4.27535 85.4227 4.05095 85.6015 3.88114C85.7802 3.69919 86.0007 3.60822 86.2629 3.60822C86.537 3.60822 86.7574 3.69919 86.9243 3.88114C87.0911 4.05095 87.1745 4.27535 87.1745 4.55434V16.8722C87.1745 17.139 87.0911 17.3634 86.9243 17.5454C86.7574 17.7273 86.537 17.8183 86.2629 17.8183C86.1437 17.8183 86.0126 17.794 85.8696 17.7455C85.7385 17.6848 85.6313 17.5999 85.5479 17.4908L77.7541 6.93785V16.8722C77.7541 17.139 77.6647 17.3634 77.486 17.5454C77.3191 17.7273 77.0987 17.8183 76.8246 17.8183Z" fill="#151515"/>
<path d="M96.3699 17.8183C96.1078 17.8183 95.8873 17.7273 95.7085 17.5454C95.5298 17.3634 95.4404 17.139 95.4404 16.8722V5.35491H91.5793C91.329 5.35491 91.1205 5.27606 90.9536 5.11838C90.7987 4.94856 90.7213 4.73629 90.7213 4.48156C90.7213 4.22684 90.7987 4.02063 90.9536 3.86294C91.1205 3.69312 91.329 3.60822 91.5793 3.60822H101.143C101.393 3.60822 101.596 3.69312 101.75 3.86294C101.917 4.02063 102.001 4.22684 102.001 4.48156C102.001 4.73629 101.917 4.94856 101.75 5.11838C101.596 5.27606 101.393 5.35491 101.143 5.35491H97.2995V16.8722C97.2995 17.139 97.2101 17.3634 97.0313 17.5454C96.8526 17.7273 96.6321 17.8183 96.3699 17.8183Z" fill="#151515"/>
</g>
</g>
</g>
</svg>
