<svg width="166" height="166" viewBox="0 0 166 166" fill="none" xmlns="http://www.w3.org/2000/svg">
    <path d="M0 65C0 29.1015 29.1015 0 65 0H154C160.627 0 166 5.37258 166 12V101C166 136.898 136.898 166 101 166H12C5.37259 166 0 160.627 0 154V65Z" fill="url(#paint0_linear_1_1258)"/>
    <path d="M57.6561 38.5206H114.922V47.9496H65.0977L57.6561 38.5206Z" fill="white"/>
    <path d="M124.364 43.2559C124.364 48.4634 120.156 52.6849 114.966 52.6849C109.775 52.6849 105.568 48.4634 105.568 43.2559C105.568 38.0484 109.775 33.8269 114.966 33.8269C120.156 33.8269 124.364 38.0484 124.364 43.2559Z" fill="white"/>
    <path d="M39.7964 77.3446H97.0624V86.7737H47.2379L39.7964 77.3446Z" fill="white"/>
    <path d="M106.504 82.08C106.504 87.2875 102.296 91.509 97.1059 91.509C91.9155 91.509 87.7079 87.2875 87.7079 82.08C87.7079 76.8724 91.9155 72.6509 97.1059 72.6509C102.296 72.6509 106.504 76.8724 106.504 82.08Z" fill="white"/>
    <path d="M57.6561 116.169H114.922V125.598H65.0977L57.6561 116.169Z" fill="white"/>
    <path d="M124.364 120.904C124.364 126.111 120.156 130.333 114.966 130.333C109.775 130.333 105.568 126.111 105.568 120.904C105.568 115.696 109.775 111.475 114.966 111.475C120.156 111.475 124.364 115.696 124.364 120.904Z" fill="white"/>
    <defs>
        <linearGradient id="paint0_linear_1_1258" x1="17.5763" y1="26.2086" x2="87.277" y2="112.004" gradientUnits="userSpaceOnUse">
            <stop stop-color="#15E6CD"/>
            <stop offset="1" stop-color="#037FFF"/>
        </linearGradient>
    </defs>
</svg>
